#!OML:ASF H:\LiuWeirdWalks\Patient Classification 1\Patient 1\Session 1\male.ASF
:FULLY-SPECIFIED
:DEGREES
3903
root 1.79302 18.0508 7.0175 544.534 180.099 172.963
lowerback 2.52342 3.73961 7.57744
upperback -1.12185 5.36091 4.44955
thorax -2.31795 2.58808 0.147892
lowerneck -17.7909 0.748624 7.65529
upperneck 20.6221 1.14465 -9.46877
head 9.5391 0.0686666 -4.44895
rclavicle -2.59414e-014 2.22639e-014
rhumerus -17.2702 -6.7051 -75.7879
rradius 30.4689
rwrist -14.9127
rhand -20.4212 -7.13068
rfingers 7.12502
rthumb 5.93315 -37.0276
lclavicle -2.59414e-014 2.22639e-014
lhumerus -41.3423 -1.98072 80.1568
lradius 31.5003
lwrist 6.55037
lhand -13.4349 -0.605756
lfingers 7.12502
lthumb 12.674 28.9897
rfemur 9.59176 -5.29276 29.7804
rtibia 6.26244
rfoot -11.6785 -0.139931
rtoes -7.95312
lfemur -34.844 -1.84299 -12.8056
ltibia 27.5987
lfoot -8.13773 15.0122
ltoes -17.7621
3904
root 1.79885 18.0336 7.16329 544.557 179.779 172.881
lowerback 2.39921 4.04934 7.81746
upperback -1.17737 5.76648 4.25279
thorax -2.2424 2.78565 -0.187471
lowerneck -17.764 0.520267 7.38744
upperneck 20.7121 0.802239 -9.02052
head 9.52927 -0.0605093 -4.28927
rclavicle -2.21148e-014 2.78299e-014
rhumerus -16.5573 -7.08584 -75.3824
rradius 31.1446
rwrist -15.4611
rhand -20.532 -6.99724
rfingers 7.12502
rthumb 5.82624 -36.8971
lclavicle -2.21148e-014 2.78299e-014
lhumerus -41.7916 -0.952081 78.2597
lradius 31.2382
lwrist 5.79543
lhand -13.2732 -0.629151
lfingers 7.12502
lthumb 12.8299 28.9566
rfemur 11.361 -5.2518 29.896
rtibia 3.63268
rfoot -10.6038 -0.362631
rtoes -8.36966
lfemur -35.2794 -1.82297 -13.0846
ltibia 26.772
lfoot -8.50397 14.5593
ltoes -17.8657
3905
root 1.80536 18.0145 7.31045 544.585 179.463 172.811
lowerback 2.27877 4.35662 8.04161
upperback -1.23942 6.16852 4.04785
thorax -2.17079 2.98151 -0.519904
lowerneck -17.7517 0.283498 7.09341
upperneck 20.8302 0.449921 -8.54821
head 9.53403 -0.193665 -4.11931
rclavicle -1.81888e-014 -9.30312e-014
rhumerus -15.8974 -7.48324 -74.9448
rradius 31.8614
rwrist -16.0879
rhand -20.5502 -6.92523
rfingers 7.12502
rthumb 5.80867 -36.8256
lclavicle -1.81888e-014 -9.30312e-014
lhumerus -42.2232 0.0932804 76.2777
lradius 31.0298
lwrist 5.08513
lhand -13.1195 -0.647627
lfingers 7.12502
lthumb 12.978 28.9287
rfemur 13.631 -5.20449 30.0002
rtibia -7.31528e-014
rfoot -9.0029 -0.557196
rtoes -8.80864
lfemur -35.6985 -1.80379 -13.3678
ltibia 26.0987
lfoot -8.8769 14.0609
ltoes -18.0114
3906
root 1.81257 17.9935 7.45894 544.615 179.146 172.756
lowerback 2.17839 4.66149 8.24545
upperback -1.31763 6.56983 3.83576
thorax -2.12294 3.17625 -0.84823
lowerneck -17.7041 0.0470762 6.81646
upperneck 20.9013 0.0980726 -8.09927
head 9.51895 -0.327207 -3.95881
rclavicle -1.16786e-014 -3.97569e-014
rhumerus -15.2968 -7.92077 -74.4671
rradius 32.5917
rwrist -16.7302
rhand -20.4752 -6.89953
rfingers 7.12502
rthumb 5.88101 -36.7979
lclavicle -1.16786e-014 -3.97569e-014
lhumerus -42.6579 1.11873 74.2394
lradius 30.8916
lwrist 4.45535
lhand -12.9916 -0.604864
lfingers 7.12502
lthumb 13.1013 28.9636
rfemur 14.0867 -5.16155 30.091
rtibia -2.8625e-014
rfoot -9.19187 -0.807071
rtoes -9.24091
lfemur -36.0903 -1.75978 -13.671
ltibia 25.5929
lfoot -9.22279 13.5209
ltoes -18.1879
3907
root 1.82052 17.9705 7.60918 544.637 178.818 172.711
lowerback 2.09133 4.95845 8.43702
upperback -1.40213 6.96199 3.62173
thorax -2.08551 3.36612 -1.17069
lowerneck -17.6398 -0.1889 6.54508
upperneck 20.9528 -0.25051 -7.66891
head 9.49712 -0.460641 -3.80488
rclavicle -1.85367e-014 -1.43125e-014
rhumerus -14.7375 -8.40304 -73.9469
rradius 33.3141
rwrist -17.3085
rhand -20.263 -6.927
rfingers 7.12502
rthumb 6.08592 -36.8196
lclavicle -1.85367e-014 -1.43125e-014
lhumerus -43.0848 2.12763 72.1568
lradius 30.8148
lwrist 3.88992
lhand -12.8808 -0.579382
lfingers 7.12502
lthumb 13.2081 28.9822
rfemur 14.5574 -5.13244 30.1738
rtibia 3.18055e-015
rfoot -9.35698 -1.06006
rtoes -9.67579
lfemur -36.4319 -1.68519 -13.9923
ltibia 25.2566
lfoot -9.51543 12.9413
ltoes -18.3679
3908
root 1.82958 17.9454 7.76074 544.652 178.465 172.664
lowerback 2.01825 5.23579 8.62101
upperback -1.49382 7.32997 3.41345
thorax -2.06193 3.54344 -1.48236
lowerneck -17.5912 -0.419075 6.26123
upperneck 21.0107 -0.588107 -7.23981
head 9.48424 -0.590298 -3.64866
rclavicle 3.2551e-014 -7.95139e-016
rhumerus -14.2045 -8.88669 -73.398
rradius 34.009
rwrist -17.8966
rhand -19.9874 -6.93872
rfingers 7.12502
rthumb 6.35194 -36.8235
lclavicle 3.2551e-014 -7.95139e-016
lhumerus -43.5288 3.12548 70.041
lradius 30.8203
lwrist 3.41052
lhand -12.7813 -0.577824
lfingers 7.12502
lthumb 13.304 28.9775
rfemur 15.0394 -5.12739 30.2594
rtibia -4.77083e-014
rfoot -9.50311 -1.31792
rtoes -10.1445
lfemur -36.7189 -1.5848 -14.3242
ltibia 25.0924
lfoot -9.73399 12.3398
ltoes -18.5076
3909
root 1.83887 17.9183 7.91426 544.651 178.103 172.626
lowerback 1.95718 5.50434 8.78023
upperback -1.57934 7.68635 3.20744
thorax -2.03835 3.71553 -1.77728
lowerneck -17.5771 -0.647635 5.98228
upperneck 21.0842 -0.923203 -6.82467
head 9.48611 -0.72027 -3.49927
rclavicle -1.51573e-014 1.66979e-014
rhumerus -13.6771 -9.4011 -72.8232
rradius 34.6689
rwrist -18.454
rhand -19.6591 -6.99173
rfingers 7.12502
rthumb 6.66891 -36.8667
lclavicle -1.51573e-014 1.66979e-014
lhumerus -43.9668 4.12649 67.8985
lradius 30.9079
lwrist 3.00361
lhand -12.7167 -0.508397
lfingers 7.12502
lthumb 13.3663 29.0429
rfemur 15.5423 -5.1356 30.3401
rtibia 1.90833e-014
rfoot -9.62209 -1.58883
rtoes -10.6598
lfemur -36.9365 -1.50867 -14.6445
ltibia 25.0906
lfoot -9.85767 11.7801
ltoes -18.5414
3910
root 1.84812 17.8891 8.06985 544.632 177.74 172.575
lowerback 1.92054 5.75605 8.92351
upperback -1.66635 8.02318 3.01505
thorax -2.03172 3.87752 -2.05091
lowerneck -17.5686 -0.861962 5.72994
upperneck 21.1377 -1.23791 -6.44878
head 9.48554 -0.843178 -3.36544
rclavicle 5.7896e-015 -1.03368e-014
rhumerus -13.1494 -9.89973 -72.2377
rradius 35.2777
rwrist -19.0347
rhand -19.3299 -7.07852
rfingers 7.12502
rthumb 6.98674 -36.9432
lclavicle 5.7896e-015 -1.03368e-014
lhumerus -44.4376 5.11558 65.7387
lradius 31.0882
lwrist 2.71283
lhand -12.6843 -0.434869
lfingers 7.12502
lthumb 13.3975 29.1143
rfemur 16.0691 -5.14841 30.4425
rtibia -4.13472e-014
rfoot -9.71454 -1.87982
rtoes -11.2461
lfemur -37.1269 -1.50232 -14.8972
ltibia 25.3322
lfoot -9.94058 11.3347
ltoes -18.529
3911
root 1.85712 17.8581 8.22748 544.597 177.392 172.522
lowerback 1.88595 5.99795 9.03511
upperback -1.73338 8.34493 2.83588
thorax -2.00943 4.03378 -2.29181
lowerneck -17.6109 -1.06557 5.4907
upperneck 21.212 -1.53814 -6.09574
head 9.50459 -0.96116 -3.24185
rclavicle -5.11871e-015 1.11319e-014
rhumerus -12.5817 -10.3628 -71.6474
rradius 35.8255
rwrist -19.6524
rhand -19.0613 -7.15208
rfingers 7.12502
rthumb 7.246 -37.008
lclavicle -5.11871e-015 1.11319e-014
lhumerus -44.9174 6.09825 63.5859
lradius 31.3697
lwrist 2.55243
lhand -12.7024 -0.32702
lfingers 7.12502
lthumb 13.3801 29.2233
rfemur 16.618 -5.1509 30.5553
rtibia 5.725e-014
rfoot -9.76598 -2.18845
rtoes -11.9015
lfemur -37.2447 -1.60038 -15.0673
ltibia 25.6966
lfoot -9.97613 11.0205
ltoes -18.4948
3912
root 1.86584 17.8091 8.38651 544.541 177.074 172.456
lowerback 1.87268 6.23339 9.12165
upperback -1.79076 8.65959 2.67418
thorax -1.99288 4.18711 -2.50245
lowerneck -17.6759 -1.2574 5.25808
upperneck 21.3005 -1.82042 -5.76077
head 9.53572 -1.07216 -3.12459
rclavicle 6.12257e-014 1.31198e-014
rhumerus -12.0059 -10.7832 -71.0476
rradius 36.3224
rwrist -20.2875
rhand -18.8721 -7.18844
rfingers 7.12502
rthumb 7.42863 -37.038
lclavicle 6.12257e-014 1.31198e-014
lhumerus -45.4441 7.01028 61.479
lradius 31.7873
lwrist 2.59578
lhand -12.7608 -0.124622
lfingers 7.12502
lthumb 13.3237 29.4294
rfemur 17.2148 -5.12999 30.6935
rtibia 6.36111e-015
rfoot -9.79341 -2.52963
rtoes -12.6024
lfemur -37.3366 -1.79263 -15.1415
ltibia 26.1867
lfoot -9.96009 10.8129
ltoes -18.4921
3913
root 1.87428 17.7738 8.54876 544.46 176.809 172.381
lowerback 1.8692 6.47136 9.18785
upperback -1.82923 8.97708 2.52961
thorax -1.96481 4.34334 -2.68378
lowerneck -17.7541 -1.43803 5.03749
upperneck 21.3935 -2.08482 -5.45225
head 9.5733 -1.17669 -3.01702
rclavicle 6.11511e-014 1.78906e-014
rhumerus -11.429 -11.1641 -70.4352
rradius 36.7799
rwrist -20.9307
rhand -18.761 -7.1827
rfingers 7.12502
rthumb 7.53584 -37.0285
lclavicle 6.11511e-014 1.78906e-014
lhumerus -45.9927 7.86133 59.4258
lradius 32.3105
lwrist 2.84213
lhand -12.7863 0.204278
lfingers 7.12502
lthumb 13.2992 29.7599
rfemur 17.8297 -5.06468 30.8487
rtibia 1.59028e-014
rfoot -9.7551 -2.90813
rtoes -13.332
lfemur -37.2998 -2.03578 -15.1294
ltibia 26.7319
lfoot -9.92694 10.6868
ltoes -18.5329
